#!OML:ASF H:\Terrain\Patient Classification 1\PLAYGROUND\JustinFriday\JustinFriday.ASF
:FULLY-SPECIFIED
:DEGREES
817
root -23.1134 17.6903 4.00689 180.237 6.04879 -174.324
lowerback 15.1468 -1.70815 3.19669
upperback 4.32553 -0.997767 2.81156
thorax -3.91822 -0.235086 1.31305
lowerneck 0.198257 -10.6736 -9.82334
upperneck 3.45502 -14.5874 11.5724
head 2.57163 -7.21591 4.53625
rclavicle 1.78906e-015 5.76476e-015
rhumerus 6.81262 -25.0204 -54.9496
rradius 113.528
rwrist -16.7695
rhand -1.9107 -17.7239
rfingers 7.12502
rthumb 23.759 -46.2751
lclavicle 1.78906e-015 5.76476e-015
lhumerus -27.4914 11.3416 71.5547
lradius 56.2248
lwrist 3.21808
lhand -29.8545 -14.9277
lfingers 7.12502
lthumb -3.1769 15.0284
rfemur -0.958638 4.0892 37.8641
rtibia 11.907
rfoot -6.8415 11.3542
rtoes 34.0763
lfemur -35.2046 18.3622 0.834399
ltibia 97.0113
lfoot -14.8623 -4.35424
ltoes 0.723555
818
root -23.1739 17.6647 4.01139 180.408 6.26871 -174.027
lowerback 15.7211 -2.13555 3.21535
upperback 4.18144 -1.50675 2.97256
thorax -4.37549 -0.486826 1.58542
lowerneck -1.07466 -10.3796 -9.56369
upperneck 4.23655 -14.1319 10.9699
head 2.89921 -6.9487 4.26001
rclavicle 1.59028e-014 -1.41137e-014
rhumerus 7.67877 -24.0781 -55.8705
rradius 113.204
rwrist -17.1302
rhand -1.38931 -17.8367
rfingers 7.12502
rthumb 24.259 -46.3219
lclavicle 1.59028e-014 -1.41137e-014
lhumerus -25.5867 11.8044 72.1289
lradius 54.7804
lwrist 2.49692
lhand -29.8317 -13.9446
lfingers 7.12502
lthumb -3.15496 16.0118
rfemur -0.576555 4.32748 38.0982
rtibia 10.8888
rfoot -6.41767 11.1629
rtoes 33.2439
lfemur -38.1194 17.3121 1.189
ltibia 98.0609
lfoot -14.9624 -4.96074
ltoes -0.507286
819
root -23.2445 17.675 3.96136 180.544 6.90268 -173.963
lowerback 15.9269 -2.40328 3.21427
upperback 4.04703 -1.84709 3.07341
thorax -4.6235 -0.660021 1.7693
lowerneck -1.45765 -10.06 -9.69951
upperneck 4.56673 -13.686 10.8775
head 3.01663 -6.71587 4.25618
rclavicle 1.66482e-014 3.97569e-016
rhumerus 8.40393 -23.1349 -56.4855
rradius 112.877
rwrist -17.6508
rhand -0.461047 -18.2459
rfingers 7.12502
rthumb 25.1487 -46.6094
lclavicle 1.66482e-014 3.97569e-016
lhumerus -26.2899 11.3357 72.4026
lradius 55.8443
lwrist 2.73686
lhand -30.0879 -14.367
lfingers 7.12502
lthumb -3.40234 15.5856
rfemur 0.372431 4.46545 37.9279
rtibia 9.29826
rfoot -5.73159 11.4504
rtoes 32.7746
lfemur -40.091 16.535 1.22694
ltibia 98.7317
lfoot -15.4386 -5.2456
ltoes -1.8955
820
root -23.323 17.6967 3.89666 180.691 8.58054 -173.854
lowerback 16.772 -2.22364 3.14801
upperback 3.7001 -1.56757 3.24711
thorax -5.44225 -0.534359 1.97205
lowerneck -1.78736 -9.84521 -9.92161
upperneck 4.84668 -13.3748 10.734
head 3.1265 -6.55652 4.24538
rclavicle -2.0773e-014 3.91606e-014
rhumerus 8.65264 -22.2125 -56.4624
rradius 112.572
rwrist -18.2518
rhand 0.611182 -18.3038
rfingers 7.12502
rthumb 26.1756 -46.5191
lclavicle -2.0773e-014 3.91606e-014
lhumerus -26.2295 11.0469 73.0777
lradius 55.8857
lwrist 2.63832
lhand -30.5459 -15.1366
lfingers 7.12502
lthumb -3.84461 14.8085
rfemur 1.16112 5.59964 37.7393
rtibia 8.46695
rfoot -5.32901 11.6116
rtoes 32.2393
lfemur -41.426 16.5918 1.32181
ltibia 99.2767
lfoot -15.9761 -5.43316
ltoes -1.93448
821
root -23.3988 17.7207 3.83189 180.883 10.1579 -173.859
lowerback 15.6943 -2.11847 3.61269
upperback 4.80518 -1.402 2.83449
thorax -3.71604 -0.405318 1.18337
lowerneck -3.87795 -9.91629 -9.1818
upperneck 4.85865 -13.3819 10.8921
head 3.43578 -6.47702 4.07307
rclavicle -1.963e-014 1.8487e-014
rhumerus 10.532 -22.8118 -57.9749
rradius 112.206
rwrist -18.1914
rhand 0.962208 -18.0404
rfingers 7.12502
rthumb 26.5117 -46.2055
lclavicle -1.963e-014 1.8487e-014
lhumerus -23.1751 10.8455 73.5139
lradius 55.2537
lwrist 2.19751
lhand -29.7316 -15.8607
lfingers 7.12502
lthumb -3.05822 14.0971
rfemur 2.53575 6.67565 37.453
rtibia 6.28237
rfoot -4.20266 11.7179
rtoes 31.9079
lfemur -42.9378 16.588 1.21066
ltibia 99.6751
lfoot -16.7332 -5.58986
ltoes -2.127
822
root -23.4803 17.7725 3.71864 180.501 12.563 -174.134
lowerback 15.3348 -1.7636 3.79576
upperback 5.69199 -0.912435 2.32822
thorax -2.5975 -0.110533 0.440935
lowerneck -5.37106 -9.93694 -8.52526
upperneck 5.13715 -13.3763 10.8378
head 3.7168 -6.40839 3.87827
rclavicle 2.62644e-014 -2.3556e-014
rhumerus 11.7196 -22.8741 -59.1605
rradius 111.828
rwrist -17.7531
rhand 0.361864 -17.3507
rfingers 7.12502
rthumb 25.9369 -45.6012
lclavicle 2.62644e-014 -2.3556e-014
lhumerus -21.2125 10.3037 73.8257
lradius 55.12
lwrist 1.7828
lhand -29.1516 -16.1658
lfingers 7.12502
lthumb -2.49815 13.7993
rfemur 4.44675 8.39238 36.905
rtibia 4.71831
rfoot -3.53132 12.0293
rtoes 31.8152
lfemur -42.939 17.132 0.968401
ltibia 99.8123
lfoot -18.0447 -5.58829
ltoes -2.38486
823
root -23.5584 17.8049 3.63448 180.897 14.7276 -173.767
lowerback 15.3571 -1.40187 4.22694
upperback 5.65834 -0.392759 2.24525
thorax -2.63765 0.14189 0.0215482
lowerneck -5.13997 -9.76418 -8.00528
upperneck 4.86399 -13.1498 10.5342
head 3.51919 -6.31057 3.74704
rclavicle 1.13432e-014 1.63997e-014
rhumerus 11.8403 -22.2242 -59.5161
rradius 111.441
rwrist -17.3877
rhand -0.750681 -16.4548
rfingers 7.12502
rthumb 24.8712 -44.8569
lclavicle 1.13432e-014 1.63997e-014
lhumerus -20.4869 9.51751 74.179
lradius 55.1783
lwrist 1.49025
lhand -29.7894 -15.891
lfingers 7.12502
lthumb -3.11412 14.066
rfemur 6.87251 10.0903 37.0783
rtibia 0.439728
rfoot -1.07637 12.0301
rtoes 32.2085
lfemur -44.2774 17.9297 1.26347
ltibia 100.117
lfoot -18.8998 -5.42169
ltoes -4.64239
824
root -23.6171 17.7697 3.67214 182.118 14.1102 -173.08
lowerback 16.3863 -2.15238 3.80486
upperback 3.89516 -1.40038 3.29783
thorax -5.04411 -0.461417 1.60418
lowerneck -1.47526 -8.83521 -9.53742
upperneck 3.92229 -11.9755 10.3358
head 2.60616 -5.89124 4.2016
rclavicle 4.74101e-014 -2.48481e-014
rhumerus 11.0215 -18.9328 -58.7109
rradius 110.97
rwrist -17.2705
rhand -1.97933 -15.6306
rfingers 7.12502
rthumb 23.6932 -44.1903
lclavicle 4.74101e-014 -2.48481e-014
lhumerus -22.6792 9.9922 74.594
lradius 55.3303
lwrist 1.27219
lhand -30.3593 -16.0267
lfingers 7.12502
lthumb -3.6644 13.9215
rfemur 5.72847 9.33062 37.4988
rtibia 2.8625e-014
rfoot -0.183086 12.0856
rtoes 33.3798
lfemur -48.9282 16.7842 1.52984
ltibia 100.817
lfoot -18.9741 -5.68392
ltoes -8.18023
